HIERARCHY
ROOT hip
{
	OFFSET 0.00 0.00 0.00
	CHANNELS 6 Xposition Yposition Zposition Xrotation Yrotation Zrotation
	JOINT abdomen
	{
		OFFSET 0.1133 -0.2307 3.3019
		CHANNELS 3 Xrotation Yrotation Zrotation
		JOINT chest
		{
			OFFSET 0.1107 0.0732 15.6147
			CHANNELS 3 Xrotation Yrotation Zrotation
			JOINT neck
			{
				OFFSET 0.0000 -0.0241 22.6468
				CHANNELS 3 Xrotation Yrotation Zrotation
				JOINT head
				{
					OFFSET -0.2563 5.6164 9.0688
					CHANNELS 3 Xrotation Yrotation Zrotation
					End Site
					{
						OFFSET 0.0000 3.1102 -0.0000
					}
				}
			}
			JOINT lCollar
			{
				OFFSET 3.1323 -2.6098 20.8127
				CHANNELS 3 Xrotation Yrotation Zrotation
				JOINT lShldr
				{
					OFFSET 3.2739 -5.2688 -1.2145
					CHANNELS 3 Xrotation Yrotation Zrotation
					JOINT lForeArm
					{
						OFFSET -0.3326 -12.9583 -1.4234
						CHANNELS 3 Xrotation Yrotation Zrotation
						JOINT lHand
						{
							OFFSET -0.8016 -18.3420 1.0179
							CHANNELS 3 Xrotation Yrotation Zrotation
							End Site
							{
								OFFSET 3.9370 0.0000 0.0000
							}
						}
					}
				}
			}
			JOINT rCollar
			{
				OFFSET -2.7896 -2.6098 20.8127
				CHANNELS 3 Xrotation Yrotation Zrotation
				JOINT rShldr
				{
					OFFSET -3.2739 -5.2688 -1.2145
					CHANNELS 3 Xrotation Yrotation Zrotation
					JOINT rForeArm
					{
						OFFSET 0.3326 -12.9583 -1.4234
						CHANNELS 3 Xrotation Yrotation Zrotation
						JOINT rHand
						{
							OFFSET 0.8016 -18.3420 1.0179
							CHANNELS 3 Xrotation Yrotation Zrotation
							End Site
							{
								OFFSET -3.9370 0.0000 0.0000
							}
						}
					}
				}
			}
		}
	}
	JOINT rThigh
	{
		OFFSET -4.8916 -5.5348 3.1237
		CHANNELS 3 Xrotation Yrotation Zrotation
		JOINT rShin
		{
			OFFSET -0.3314 -21.3076 -7.1952
			CHANNELS 3 Xrotation Yrotation Zrotation
			JOINT rFoot
			{
				OFFSET 0.5200 -10.7369 0.2921
				CHANNELS 3 Xrotation Yrotation Zrotation
				End Site
				{
					OFFSET 0.0000 -2.3873 4.4077
				}
			}
		}
	}
	JOINT lThigh
	{
		OFFSET 5.6823 -5.5348 3.1237
		CHANNELS 3 Xrotation Yrotation Zrotation
		JOINT lShin
		{
			OFFSET 0.3314 -21.3076 -7.1952
			CHANNELS 3 Xrotation Yrotation Zrotation
			JOINT lFoot
			{
				OFFSET -0.5200 -10.7369 0.2921
				CHANNELS 3 Xrotation Yrotation Zrotation
				End Site
				{
					OFFSET 0.0000 -2.3866 4.4077
				}
			}
		}
	}
}
MOTION
Frames: 20
Frame Time: 0.041667
0.0000 0.0000 0.1000 1.0000 0.0000 0.0000 1.0000 0.0000 0.0000 0.0000 0.0000 0.0000 0.0000 0.0000 0.0000 1.0000 0.0000 0.0000 1.0000 0.0000 0.0000 0.0000 0.0000 0.0000 1.0000 0.0000 0.0000 1.0000 0.0000 0.0000 0.0000 0.0000 0.0000 1.0000 0.0000 0.0000 1.0000 0.0000 0.0000 1.0000 0.0000 0.0000 0.0000 0.0000 0.0000 1.0000 0.0000 0.0000 1.0000 0.0000 0.0000 1.0000 0.0000 0.0000 1.0000 0.0000 0.0000 1.0000 0.0000 0.0000 
0.0000 -0.0000 -0.0000 0.0000 0.0000 0.0000 0.0000 0.0000 0.0000 0.0000 0.0000 2.1248 5.0784 0.0000 0.0000 0.0000 0.0000 0.0000 0.0000 0.0000 0.0000 -29.6946 0.0000 0.0000 0.0000 0.0000 0.0000 0.0000 0.0000 0.0000 0.0000 0.0000 -2.5918 0.0000 0.0000 0.0000 0.0000 0.0000 0.0000 0.0000 0.0000 0.0000 -32.1887 0.0000 0.0000 0.0000 0.0000 0.0000 0.0000 0.0000 0.0000 0.0000 0.0000 0.0000 0.0000 0.0000 0.0000 0.0000 0.0000 0.0000 
0.0000 -0.0000 -0.0000 0.0000 0.0000 0.0000 0.0000 0.0000 0.0000 0.0000 0.0000 1.9359 5.0712 0.0000 0.0000 0.0000 0.0000 0.0000 0.0000 0.0000 0.0000 -28.4609 -0.0001 -0.0001 0.0000 0.0000 0.0000 0.0000 0.0000 0.0000 0.0000 0.0000 -2.3614 -0.0843 0.0000 0.0000 3.8449 0.0004 0.0000 0.0000 0.0000 0.0000 -31.3322 -0.0001 0.0000 0.0000 0.0000 0.0000 0.0000 0.0000 0.0000 -0.4864 0.0000 0.0000 5.5813 -0.0001 0.0002 0.0000 0.0000 0.0000 
0.0000 -0.0000 -0.0000 0.0000 0.0000 0.0000 0.0000 0.0000 0.0000 0.0000 0.0000 1.4039 5.0088 0.0000 0.0000 0.0000 0.0000 0.0000 0.0000 0.0000 0.0000 -24.3712 -0.0001 -0.0001 0.0000 0.0000 0.0000 0.0000 0.0000 0.0000 0.0000 0.0000 -1.7125 -0.8121 0.0001 0.0000 15.5672 0.0003 -0.0001 0.0000 0.0000 0.0000 -28.2327 -0.0002 -0.0001 0.0000 0.0000 0.0000 0.0000 0.0000 0.0000 -2.2406 0.0000 0.0000 22.0751 0.0009 0.0005 0.0000 0.0000 0.0000 
0.0000 -0.0000 -0.0000 0.0000 0.0000 0.0000 0.0000 0.0000 0.0000 0.0000 0.0000 0.7208 4.8159 0.0000 0.0000 0.0000 0.0000 0.0000 0.0000 0.0000 0.0000 -17.4376 -0.0001 0.0000 0.0000 0.0000 0.0000 0.0000 0.0000 0.0000 0.0000 0.0000 -0.8793 -3.0695 0.0003 0.0001 32.9748 -0.0006 0.0001 0.0000 0.0000 0.0000 -22.3606 -0.0001 0.0000 0.0000 0.0000 0.0000 0.0000 0.0000 0.0000 -5.5319 0.0000 0.0000 44.8098 0.0029 -0.0001 0.0000 0.0000 0.0000 
0.0000 -0.0000 -0.0000 0.0000 0.0000 0.0000 0.0000 0.0000 0.0000 0.0000 0.0000 0.1889 4.4458 0.0000 0.0000 0.0000 0.0000 0.0000 0.0000 0.0000 0.0000 -8.7644 0.0000 0.0000 0.0000 0.0000 0.0000 0.0000 0.0000 0.0000 0.0000 0.0000 -0.2304 -7.4276 0.0004 0.0002 50.9356 -0.0006 0.0002 0.0000 0.0000 0.0000 -14.0603 0.0000 0.0000 0.0000 0.0000 0.0000 0.0000 0.0000 0.0000 -10.1231 0.0000 0.0000 65.1218 0.0027 -0.0007 0.0000 0.0000 0.0000 
0.0000 -0.0000 -0.0000 0.0000 0.0000 0.0000 0.0000 0.0000 0.0000 0.0000 0.0000 0.0000 3.9149 0.0000 0.0000 0.0000 0.0000 0.0000 0.0000 0.0000 0.0000 0.2120 0.0000 0.0000 0.0000 0.0000 0.0000 0.0000 0.0000 0.0000 0.0000 0.0000 0.0000 -13.7201 0.0000 0.0000 65.5731 0.0000 0.0000 0.0000 0.0000 0.0000 -4.3688 0.0000 0.0000 0.0000 0.0000 0.0000 0.0000 0.0000 0.0000 -15.4311 0.0000 0.0000 78.2500 0.0000 0.0000 0.0000 0.0000 0.0000 
0.0000 -0.0000 -0.0000 0.0000 0.0000 0.0000 0.0000 0.0000 0.0000 0.0000 0.0000 0.0000 0.0000 0.0000 0.0000 0.0000 0.0000 0.0000 0.0000 0.0000 0.0000 11.7031 0.0000 0.0000 0.0000 0.0000 0.0000 0.0000 0.0000 0.0000 0.0000 0.0000 0.0000 -32.1012 0.0000 0.0000 78.6069 0.0004 -0.0001 -5.0898 0.0000 0.0000 9.9455 0.0000 0.0000 0.0000 0.0000 0.0000 0.0000 0.0000 0.0000 -23.2786 0.0000 0.0000 87.2365 -0.0011 0.0004 29.4882 -0.0003 -0.0005 
0.0000 -0.0000 -0.0000 0.0000 0.0000 0.0000 0.0000 0.0000 0.0000 0.0000 0.0000 -0.5632 -2.3665 0.0000 0.0000 0.0000 0.0000 0.0000 0.0000 0.0000 0.7575 15.8228 -0.0001 0.0000 0.0000 0.0000 0.0000 0.0000 0.0000 0.0000 0.0000 0.0000 0.0000 -30.9644 0.0001 0.0000 59.8359 0.0005 -0.0001 -4.9223 0.0000 0.0000 15.0508 -0.0001 0.0000 0.0000 0.0000 0.0000 0.0000 0.0000 0.0000 -26.1067 0.0000 0.0000 65.9862 0.0007 -0.0009 22.3716 -0.0002 -0.0004 
0.0000 -0.0000 -0.0000 0.0000 0.0000 0.0000 0.0000 0.0000 0.0000 0.0000 0.0000 -1.7685 -3.7642 0.0000 0.0000 0.0000 0.0000 0.0000 0.0000 0.0000 2.3785 17.5015 0.0000 0.0000 0.0000 0.0000 0.0000 0.0000 0.0000 0.0000 0.0000 0.0000 0.0000 -27.7966 0.0000 0.0000 18.0773 0.0033 -0.0004 -3.4886 0.0002 0.0000 17.1219 0.0000 0.0000 0.0000 0.0000 0.0000 0.0000 0.0000 0.0000 -27.2642 0.0000 0.0000 19.3734 -0.0035 0.0005 7.0803 -0.0001 -0.0001 
0.0000 -0.0000 -0.0000 0.0000 0.0000 0.0000 0.0000 0.0000 0.0000 0.0000 0.0000 -2.3317 -4.1114 0.0000 0.0000 0.0000 0.0000 0.0000 0.0000 0.0000 3.1360 17.6962 0.0000 0.0000 0.0000 0.0000 0.0000 0.0000 0.0000 0.0000 0.0000 0.0000 0.0000 -24.3634 0.0000 0.0000 0.0000 0.0000 0.0000 0.0000 0.0000 0.0000 17.3617 0.0000 0.0000 0.0000 0.0000 0.0000 0.0000 0.0000 0.0000 -27.3985 0.0000 0.0000 0.0000 0.0000 0.0000 0.0000 0.0000 0.0000 
0.0000 -0.0000 -0.0000 0.0000 0.0000 0.0000 0.0000 0.0000 0.0000 0.0000 0.0000 -2.2625 -3.7376 0.0000 0.0000 0.0000 0.0000 0.0000 0.0000 0.0000 2.9423 15.6667 0.0000 0.0000 4.9312 -0.0001 0.0001 0.0000 0.0000 0.0000 0.0000 0.0000 0.0000 -21.0714 0.0000 0.0000 0.0000 0.0000 0.0000 10.0132 0.2915 0.0582 15.4019 0.0000 0.0000 3.9257 0.0003 -0.0001 2.6250 0.0000 0.0001 -26.3043 0.0000 0.0000 0.0000 0.0000 0.0000 8.7395 0.0000 0.0000 
0.0000 -0.0000 -0.0000 0.0000 0.0000 0.0000 0.0000 0.0000 0.0000 0.0000 0.0000 -2.0367 -2.6101 0.0000 0.0000 0.0000 0.0000 0.0000 0.0000 0.0000 2.3785 9.5093 -0.0001 0.0000 19.7258 0.0008 0.0002 0.0000 0.0000 0.0000 0.0000 0.0000 0.0000 -17.2883 0.0000 0.0000 0.0000 0.0000 0.0000 17.4800 0.5889 0.0780 9.4244 0.0000 0.0000 15.8258 -0.0004 -0.0003 10.3671 0.0002 0.0005 -22.9909 0.0000 0.0000 0.0000 0.0000 0.0000 17.4804 0.0000 0.0000 
0.0000 -0.0000 -0.0000 0.0000 0.0000 0.0000 0.0000 0.0000 0.0000 0.0000 0.0000 -1.6475 -0.8867 0.0000 0.0000 0.0000 0.0000 0.0000 0.0000 0.0000 1.5680 0.0365 -0.0002 -0.0001 40.5905 0.0023 -0.0002 0.0000 0.0000 0.0000 0.0000 0.0000 0.0000 -13.2467 0.0000 0.0000 0.0000 0.0000 0.0000 15.0683 0.5067 0.0780 0.1430 -0.0001 0.0000 33.3801 -0.0018 -0.0001 21.6579 0.0006 0.0010 -17.8957 0.0000 0.0000 0.0000 0.0000 0.0000 15.0686 0.0000 0.0000 
0.0000 -0.0000 -0.0000 0.0000 0.0000 0.0000 0.0000 0.0000 0.0000 0.0000 0.0000 -1.1334 1.0347 0.0000 0.0000 0.0000 0.0000 0.0000 0.0000 0.0000 0.7575 -10.4464 -0.0002 -0.0001 59.4422 0.0020 -0.0007 0.0000 0.0000 0.0000 0.0000 0.0000 0.0000 -9.3601 0.0000 0.0000 0.0000 0.0000 0.0000 8.7400 0.2915 0.0615 -10.2922 -0.0001 0.0000 51.5026 -0.0016 0.0002 32.9489 0.0010 0.0014 -12.1885 0.0000 0.0000 0.0000 0.0000 0.0000 8.7402 0.0000 0.0000 
0.0000 -0.0000 -0.0000 0.0000 0.0000 0.0000 0.0000 0.0000 0.0000 0.0000 0.0000 -0.5641 2.7058 0.0000 0.0000 0.0000 0.0000 0.0000 0.0000 0.0000 0.1937 -19.2784 -0.0002 -0.0001 71.1520 0.0000 -0.0002 0.0000 0.0000 0.0000 0.0000 0.0000 0.0000 -6.0089 0.0000 0.0000 0.0000 0.0000 0.0000 2.4117 0.0794 0.0214 -19.3304 -0.0001 0.0000 66.5204 -0.0001 -0.0001 40.6910 0.0013 0.0017 -7.2150 0.0000 0.0000 0.0000 0.0000 0.0000 2.4118 0.0000 0.0000 
0.0000 -0.0000 -0.0000 0.0000 0.0000 0.0000 0.0000 0.0000 0.0000 0.0000 0.0000 0.0000 3.8619 0.0000 0.0000 0.0000 0.0000 0.0000 0.0000 0.0000 0.0000 -25.0016 -0.0001 0.0000 75.8101 -0.0008 0.0000 0.0000 0.0000 0.0000 0.0000 0.0000 0.0000 -3.3539 0.0000 0.0000 0.0000 0.0000 0.0000 0.0000 0.0000 0.0000 -25.5224 -0.0001 0.0000 80.7364 0.0030 -0.0010 43.3159 0.0014 0.0017 -3.7672 0.0000 0.0000 0.0000 0.0000 0.0000 0.0000 0.0000 0.0000 
0.0000 -0.0000 -0.0000 0.0000 0.0000 0.0000 0.0000 0.0000 0.0000 0.0000 0.0000 0.7984 4.5130 0.0000 0.0000 0.0000 0.0000 0.0000 0.0000 0.0000 0.0000 -28.2248 0.0000 0.0000 60.4428 0.0008 -0.0009 0.0000 0.0000 0.0000 -0.0098 -0.0184 -0.5114 -1.4934 0.0000 0.0000 0.0000 0.0000 0.0000 0.0000 0.0000 0.0000 -29.1893 0.0103 0.0082 61.2502 -0.0135 -0.0023 32.9544 0.0009 0.0018 -1.5110 0.0009 -0.0026 0.0000 0.0000 0.0000 0.0000 0.0000 0.0000 
0.0000 -0.0000 -0.0000 0.0000 0.0000 0.0000 0.0000 0.0000 0.0000 0.0000 0.0000 1.7456 4.7983 0.0000 0.0000 0.0000 0.0000 0.0000 0.0000 0.0000 0.0000 -29.5410 0.0000 0.0000 23.9521 -0.0014 0.0001 0.0000 0.0000 0.0000 -0.0213 -0.0390 -1.7221 -0.5606 0.0000 0.0000 0.0000 0.0000 0.0000 0.0000 0.0000 0.0000 -30.9866 0.0217 0.0178 18.3011 -0.0254 -0.0162 10.3793 -0.0001 0.0012 -0.2773 0.0019 -0.0055 0.0000 0.0000 0.0000 0.0000 0.0000 0.0000 
0.0000 -0.0000 -0.0000 0.0000 0.0000 0.0000 0.0000 0.0000 0.0000 0.0000 0.0000 2.1248 5.0784 0.0000 0.0000 0.0000 0.0000 0.0000 0.0000 0.0000 0.0000 -29.6946 0.0000 0.0000 0.0000 0.0000 0.0000 0.0000 0.0000 0.0000 0.0000 0.0000 -2.5918 0.0000 0.0000 0.0000 0.0000 0.0000 0.0000 0.0000 0.0000 0.0000 -32.1887 0.0000 0.0000 0.0000 0.0000 0.0000 0.0000 0.0000 0.0000 0.0000 0.0000 0.0000 0.0000 0.0000 0.0000 0.0000 0.0000 0.0000 
